<?xml version="1.0" encoding="iso-8859-1"?>
<!-- Uploaded to: SVG Repo, www.svgrepo.com, Generator: SVG Repo Mixer Tools -->
<svg height="800px" width="800px" version="1.1" id="Layer_1" xmlns="http://www.w3.org/2000/svg" xmlns:xlink="http://www.w3.org/1999/xlink" 
	 viewBox="0 0 512 512" xml:space="preserve">
<path style="fill:#FFAE33;" d="M256,512c-22.457,0-40.727-18.27-40.727-40.727V366.545h81.455v104.727
	C296.727,493.73,278.457,512,256,512z"/>
<path style="fill:#FF9900;" d="M256,512V366.545h40.727v104.727C296.727,493.73,278.457,512,256,512z"/>
<polygon style="fill:#FF318F;" points="122.182,215.273 122.182,384 389.818,384 389.818,215.273 256,175.187 "/>
<polygon style="fill:#BF256B;" points="256,175.187 256,384 389.818,384 389.818,215.273 "/>
<path style="fill:#B7E4F8;" d="M256,0c-73.787,0-133.818,60.031-133.818,133.818v90.597c0,31.012,25.23,56.243,56.242,56.243
	s56.242-25.231,56.242-56.243v-11.081c0-11.763,9.571-21.334,21.333-21.334s21.333,9.571,21.333,21.334v90.32
	c0,31.012,25.231,56.242,56.243,56.242s56.243-25.23,56.243-56.242V133.818C389.818,60.031,329.787,0,256,0z"/>
<path style="fill:#6FC8F1;" d="M256,0v192c11.762,0,21.333,9.571,21.333,21.334v90.32c0,31.012,25.231,56.242,56.243,56.242
	s56.242-25.23,56.242-56.242V133.818C389.818,60.031,329.787,0,256,0z"/>
</svg>