<?xml version="1.0" encoding="iso-8859-1"?>
<!-- Uploaded to: SVG Repo, www.svgrepo.com, Generator: SVG Repo Mixer Tools -->
<svg height="800px" width="800px" version="1.1" id="Layer_1" xmlns="http://www.w3.org/2000/svg" xmlns:xlink="http://www.w3.org/1999/xlink" 
	 viewBox="0 0 501.131 501.131" xml:space="preserve">
<path style="fill:#FFD15C;" d="M450.079,299.466l-26.122,144.196c-7.314,24.033-22.988,43.886-43.886,57.469H120.936
	c-20.898-13.584-36.571-33.437-43.886-57.469L50.928,299.466H450.079z"/>
<path style="fill:#FF7058;" d="M48.838,299.466h399.151c45.975-61.649,6.269-127.478,6.269-127.478
	C419.777,65.409,297.524,3.76,297.524,3.76c-1.045,0-1.045-1.045-2.09-1.045c-4.18-3.135-8.359-3.135-12.539-2.09
	c0,0-1.045,0-1.045,1.045c-1.045,1.045-2.09,1.045-3.135,2.09c0,0-1.045,0-1.045,1.045c-3.135,3.135-5.224,8.359-3.135,13.584
	c6.269,29.257-20.898,80.457-102.4,102.4C73.915,146.911,50.928,200.2,50.928,200.2C19.581,250.356,30.03,280.658,48.838,299.466z"
	/>
<g>
	<path style="fill:#F2F2F2;" d="M181.54,299.466c-13.584-24.033-12.539-58.514,48.065-99.265c0,0,180.767-88.816,49.11-196.441
		c0,0-1.045,0-1.045,1.045c16.718,19.853,64.784,94.041-86.727,145.241C76.005,188.707,68.691,256.625,78.095,299.466H181.54z"/>
	<path style="fill:#F2F2F2;" d="M333.05,299.466c-7.314-14.629-5.224-34.482,13.584-62.694c0,0,142.106-131.657-63.739-236.147
		c0,0-1.045,0-1.045,1.045c27.167,19.853,124.343,99.265,22.988,176.588c-79.412,60.604-81.502,101.355-75.233,122.253H333.05
		V299.466z"/>
</g>
</svg>