<?xml version="1.0" encoding="iso-8859-1"?>
<!-- Uploaded to: SVG Repo, www.svgrepo.com, Generator: SVG Repo Mixer Tools -->
<svg height="800px" width="800px" version="1.1" id="Layer_1" xmlns="http://www.w3.org/2000/svg" xmlns:xlink="http://www.w3.org/1999/xlink" 
	 viewBox="0 0 500.699 500.699" xml:space="preserve">
<path style="fill:#E2E2E2;" d="M341.256,500.699H159.443c7.314-28.212,28.212-51.2,54.335-61.649l6.269-13.584l19.853-40.751h21.943
	l19.853,40.751l6.269,13.584C313.043,449.499,333.941,472.487,341.256,500.699z"/>
<path style="fill:#CDD6E0;" d="M280.652,425.466c-3.135,0-6.269,0-10.449,0h-40.751c-3.135,0-6.269,0-10.449,0l19.853-40.751h21.943
	L280.652,425.466z"/>
<path style="fill:#84DBFF;" d="M334.986,66.022h-5.224c-13.584-51.2-58.514-62.694-58.514-62.694
	c-48.065-13.584-61.649,18.808-61.649,18.808c-3.135,17.763,14.629,12.539,14.629,12.539c26.122-22.988,36.571,3.135,36.571,3.135
	c5.224,24.033-29.257,28.212-39.706,28.212h-56.424c-20.898,0-37.616,16.718-37.616,37.616v12.539
	c0,20.898,16.718,37.616,37.616,37.616h168.229c20.898,0,37.616-16.718,37.616-37.616v-12.539
	C372.603,82.74,355.884,66.022,334.986,66.022z"/>
<path style="fill:#FF7058;" d="M387.231,109.907H113.468c-20.898,0-37.616,16.718-37.616,37.616v12.539
	c0,20.898,16.718,37.616,37.616,37.616h273.763c20.898,0,37.616-16.718,37.616-37.616v-12.539
	C425.892,126.626,408.129,109.907,387.231,109.907z"/>
<path style="fill:#84DBFF;" d="M431.117,153.793H69.582c-20.898,0-37.616,16.718-37.616,37.616v8.359
	c0,9.404,7.314,16.718,16.718,16.718H453.06c9.404,0,16.718-7.314,16.718-16.718v-8.359
	C469.778,170.511,452.015,153.793,431.117,153.793z"/>
<path style="fill:#F2F2F2;" d="M30.921,211.262L30.921,211.262c0,109.714,88.816,198.531,198.531,198.531h40.751
	c109.714,0,198.531-88.816,198.531-198.531l0,0H30.921z"/>
</svg>