<?xml version="1.0" encoding="iso-8859-1"?>
<!-- Uploaded to: SVG Repo, www.svgrepo.com, Generator: SVG Repo Mixer Tools -->
<svg height="800px" width="800px" version="1.1" id="Layer_1" xmlns="http://www.w3.org/2000/svg" xmlns:xlink="http://www.w3.org/1999/xlink" 
	 viewBox="0 0 502.596 502.596" xml:space="preserve">
<path style="fill:#FFD15C;" d="M25.078,118.073v363.624c0,11.494,9.404,20.898,20.898,20.898h322.873
	c11.494,0,20.898-9.404,20.898-20.898V118.073H25.078z"/>
<path style="fill:#40596B;" d="M432.588,170.318h-42.841v42.841h42.841c4.18,0,7.314,3.135,7.314,7.314v151.51
	c0,4.18-3.135,7.314-7.314,7.314h-42.841v42.841h42.841c28.212,0,50.155-22.988,50.155-50.155V221.518
	C482.743,193.306,459.755,170.318,432.588,170.318z"/>
<g>
	<path style="fill:#F8B64C;" d="M105.535,175.543c-17.763,0-31.347,14.629-31.347,31.347v206.89
		c0,17.763,14.629,31.347,31.347,31.347c17.763,0,31.347-14.629,31.347-31.347V206.89
		C137.927,190.171,123.298,175.543,105.535,175.543z"/>
	<path style="fill:#F8B64C;" d="M309.29,175.543c-17.763,0-31.347,14.629-31.347,31.347v206.89
		c0,17.763,14.629,31.347,31.347,31.347c16.718,0,31.347-14.629,31.347-31.347V206.89
		C341.682,190.171,327.053,175.543,309.29,175.543z"/>
	<path style="fill:#F8B64C;" d="M207.935,175.543c-17.763,0-31.347,14.629-31.347,31.347v206.89
		c0,17.763,14.629,31.347,31.347,31.347s31.347-14.629,31.347-31.347V206.89C239.282,190.171,225.698,175.543,207.935,175.543z"/>
</g>
<path style="fill:#F2F2F2;" d="M365.714,77.322c1.045-3.135,2.09-6.269,2.09-10.449c0-15.673-12.539-28.212-28.212-28.212
	c-10.449,0-18.808,5.224-24.033,13.584c-9.404-8.359-21.943-13.584-35.527-13.584c-1.045,0-3.135,0-4.18,0
	c-1.045-13.584-13.584-25.078-27.167-25.078c-8.359,0-15.673,3.135-20.898,9.404C214.204,9.404,195.396,0,174.498,0
	c-27.167,0-51.2,15.673-63.739,37.616c-8.359-4.18-17.763-7.314-28.212-7.314c-34.482,0-62.694,28.212-62.694,62.694
	s28.212,62.694,62.694,62.694c19.853,0,36.571-9.404,48.065-22.988c12.539,9.404,27.167,14.629,43.886,14.629
	c24.033,0,44.931-11.494,57.469-28.212c1.045,2.09,3.135,4.18,4.18,6.269c0,3.135,0,5.224,0,7.314v142.106
	c0,12.539,9.404,21.943,21.943,21.943s21.943-9.404,21.943-21.943v-56.424c0,12.539,9.404,21.943,21.943,21.943
	s21.943-9.404,21.943-21.943v-41.796c5.224,2.09,11.494,3.135,16.718,3.135c30.302,0,54.335-24.033,54.335-54.335
	C394.971,104.49,383.478,86.727,365.714,77.322z"/>
</svg>