<?xml version="1.0" encoding="iso-8859-1"?>
<!-- Uploaded to: SVG Repo, www.svgrepo.com, Generator: SVG Repo Mixer Tools -->
<svg height="800px" width="800px" version="1.1" id="Layer_1" xmlns="http://www.w3.org/2000/svg" xmlns:xlink="http://www.w3.org/1999/xlink" 
	 viewBox="0 0 501.551 501.551" xml:space="preserve">
<path style="fill:#54C0EB;" d="M472.294,0c-56.424,0-159.869,159.869-159.869,159.869l29.257,29.257
	c0,0,159.869-103.445,159.869-159.869C501.551,18.808,482.743,0,472.294,0z"/>
<g>
	<circle style="fill:#F8B64C;" cx="150.465" cy="163.004" r="47.02"/>
	<circle style="fill:#F8B64C;" cx="307.2" cy="163.004" r="47.02"/>
</g>
<g>
	<circle style="fill:#FFD15C;" cx="105.535" cy="228.833" r="73.143"/>
	<circle style="fill:#FFD15C;" cx="228.833" cy="194.351" r="73.143"/>
	<circle style="fill:#FFD15C;" cx="352.131" cy="228.833" r="73.143"/>
</g>
<path style="fill:#CDD6E0;" d="M165.094,424.229v56.424c0,11.494,9.404,20.898,20.898,20.898h85.682
	c11.494,0,20.898-9.404,20.898-20.898v-56.424H165.094z"/>
<path style="fill:#E2E2E2;" d="M18.808,263.314c0,115.984,94.041,210.025,210.024,210.025s210.025-94.041,210.025-210.025H18.808
	L18.808,263.314z"/>
<path style="fill:#ACB3BA;" d="M441.992,228.833H15.673C7.314,228.833,0,236.147,0,244.506v3.135
	c0,8.359,7.314,15.673,15.673,15.673h425.273c8.359,0,15.673-7.314,15.673-15.673v-2.09
	C457.665,236.147,450.351,228.833,441.992,228.833z"/>
</svg>